<?xml version="1.0" standalone="no"?>
<!DOCTYPE svg PUBLIC "-//W3C//DTD SVG 20010904//EN"
 "http://www.w3.org/TR/2001/REC-SVG-20010904/DTD/svg10.dtd">
<svg version="1.0" xmlns="http://www.w3.org/2000/svg"
 width="1440.000000pt" height="1440.000000pt" viewBox="0 0 1440.000000 1440.000000"
 preserveAspectRatio="xMidYMid meet">
<metadata>
Created by potrace 1.13, written by Peter Selinger 2001-2015
</metadata>
<g transform="translate(0.000000,1440.000000) scale(0.080000,-0.080000)"
fill="#000000" stroke="none">
<path d="M9182 16675 c21 -19 46 -35 55 -35 13 0 7 10 -22 35 -53 45 -82 45
-33 0z"/>
<path d="M8594 16689 c-3 -5 28 -43 69 -85 60 -59 93 -83 162 -115 60 -28 90
-38 97 -31 18 18 1 42 -29 42 -53 0 -152 57 -224 129 -38 38 -72 65 -75 60z"/>
<path d="M9235 16602 c-22 -7 -71 -19 -110 -27 -79 -15 -155 -43 -155 -56 0
-14 15 -11 119 20 201 60 298 69 475 45 58 -8 57 10 -1 21 -66 13 -285 11
-328 -3z"/>
<path d="M9660 16565 c0 -3 28 -18 63 -34 119 -57 270 -141 315 -176 46 -36
62 -42 62 -25 0 26 -108 100 -250 169 -106 52 -190 81 -190 66z"/>
<path d="M7951 16496 c-1 -25 38 -106 51 -106 5 0 29 -16 53 -35 26 -22 58
-38 82 -42 37 -5 36 -4 -32 39 -62 39 -101 80 -142 144 -12 19 -12 19 -12 0z"/>
<path d="M9205 16449 c-22 -10 -44 -25 -50 -32 -5 -7 -25 -19 -42 -26 -34 -14
-44 -31 -18 -31 8 0 23 -4 33 -9 9 -5 44 -14 76 -20 33 -6 64 -15 68 -19 5 -5
-99 -12 -239 -15 -200 -5 -261 -10 -315 -25 -102 -29 -267 -135 -269 -174 0
-15 -162 -138 -191 -146 -19 -5 -19 -4 -3 27 9 18 15 37 13 43 -5 13 -132
-114 -156 -154 -9 -16 -20 -28 -25 -28 -15 0 3 53 29 88 18 23 21 32 11 32 -8
0 -17 -7 -21 -15 -6 -16 -26 -21 -26 -7 0 17 97 112 116 112 16 0 17 2 4 11
-11 8 -12 12 -2 16 14 5 17 33 3 33 -20 0 -103 -109 -137 -180 -19 -41 -40
-83 -45 -92 -5 -10 -9 -23 -9 -28 0 -6 -8 -30 -19 -53 -29 -66 -58 -149 -65
-189 -4 -21 -11 -38 -16 -38 -17 0 -11 61 14 162 33 127 73 229 124 308 23 36
38 66 33 68 -5 2 -45 -21 -89 -50 -170 -113 -294 -189 -300 -183 -3 3 4 22 15
43 12 20 31 55 43 76 l22 40 -24 -18 c-13 -9 -30 -19 -38 -22 -26 -9 -106
-138 -130 -208 -16 -48 -79 -150 -101 -165 -14 -8 -23 -6 -40 8 l-22 17 25 45
c14 24 39 66 57 93 71 113 3 58 -87 -69 -67 -94 -185 -285 -208 -335 -13 -29
-17 -32 -24 -19 -9 16 23 171 40 194 4 6 10 24 14 40 5 23 4 26 -4 15 -42 -58
-85 -216 -96 -347 -7 -86 6 -180 32 -240 8 -17 14 -35 14 -40 0 -14 30 -73 37
-73 3 0 3 28 0 62 -3 36 1 93 9 137 28 151 32 154 45 29 22 -216 123 -418 201
-404 l27 5 0 -127 c0 -70 4 -151 10 -181 6 -29 11 -74 11 -100 0 -54 24 -134
32 -105 2 11 -1 66 -8 124 -23 196 -14 405 20 438 8 8 30 15 48 16 l33 1 6
111 c8 124 20 194 55 306 29 91 98 249 109 249 4 -1 8 -66 9 -144 1 -105 5
-148 15 -160 7 -9 17 -14 22 -11 5 3 9 -11 9 -31 0 -50 33 -114 93 -179 64
-69 110 -84 127 -42 12 32 21 33 40 5 27 -39 42 -51 52 -41 7 7 -1 44 -20 103
-24 75 -32 118 -36 212 -7 147 4 152 49 22 20 -56 84 -181 112 -217 10 -12 54
-59 98 -103 83 -83 188 -146 265 -159 19 -3 45 -8 58 -12 29 -8 29 11 2 108
-11 40 -20 77 -20 82 0 21 29 -22 80 -119 29 -55 77 -135 106 -178 30 -43 54
-80 54 -82 0 -7 153 -151 220 -208 78 -65 194 -131 220 -124 14 4 34 -15 82
-77 88 -115 151 -159 248 -172 50 -7 50 -7 50 22 0 16 -6 55 -14 87 -17 72 -8
73 64 7 60 -56 80 -62 80 -26 0 38 87 146 140 174 38 20 56 23 115 20 87 -5
135 -27 199 -92 95 -97 134 -230 121 -411 -6 -77 -12 -100 -42 -158 -66 -126
-248 -263 -393 -296 -25 -5 -69 -15 -98 -21 -79 -18 -79 -34 1 -26 85 8 185
39 248 77 27 16 54 29 60 29 5 0 37 23 70 50 33 28 62 50 64 50 2 0 -17 -37
-41 -81 -25 -45 -43 -87 -40 -95 9 -24 65 -46 99 -38 18 4 61 6 97 5 44 -2 80
3 108 14 24 10 46 15 49 11 4 -4 -1 -22 -12 -42 -21 -39 -54 -52 -91 -35 -14
6 -42 11 -62 11 -20 0 -43 4 -51 9 -14 9 -51 -6 -51 -21 0 -5 22 -8 48 -8 27
0 70 -6 95 -14 26 -8 47 -12 47 -9 0 3 6 1 13 -5 6 -5 39 -17 72 -27 74 -21
122 -68 132 -129 5 -34 17 -51 72 -101 36 -33 117 -112 178 -175 112 -113 145
-131 79 -41 -19 25 -87 98 -150 161 -93 92 -119 124 -132 162 -8 26 -35 70
-60 97 -28 32 -44 58 -44 75 0 15 -7 29 -15 32 -10 4 -15 20 -15 48 1 41 1 41
72 76 39 19 91 50 115 68 48 35 63 40 63 17 0 -20 4 -19 49 9 47 30 141 133
189 206 48 75 107 202 128 278 18 64 37 79 49 40 14 -46 48 -118 55 -118 4 0
10 12 13 28 3 15 17 59 31 98 32 90 49 202 41 275 -6 47 -4 56 9 56 9 0 16 -7
16 -15 0 -9 3 -12 7 -9 6 6 -25 124 -48 184 -9 25 -7 26 134 63 136 36 237 98
237 147 0 20 -5 23 -37 23 -21 0 -81 10 -133 21 -52 12 -108 21 -124 20 -45
-2 -131 28 -212 74 -95 54 -104 62 -125 110 -19 40 -26 115 -11 115 4 0 30
-25 59 -57 52 -58 83 -69 45 -16 -11 15 -36 91 -55 168 -79 305 -87 324 -189
400 -67 50 -171 115 -185 115 -5 0 -15 11 -21 25 -6 14 -16 25 -22 25 -9 0
-37 55 -77 150 -62 150 -115 215 -227 274 -45 24 -59 26 -164 26 -93 0 -117
-3 -126 -16 -11 -14 -16 -14 -56 0 -25 9 -56 16 -69 16 -13 0 -38 10 -55 23
-17 12 -42 28 -56 35 -14 7 -47 26 -75 42 -47 28 -75 42 -220 110 -147 69
-212 93 -287 105 -45 7 -55 20 -34 44 26 28 1 41 -78 41 -50 -1 -83 -7 -111
-21z m1175 -715 c50 -42 112 -140 108 -172 -3 -30 3 -36 -80 70 -83 105 -88
112 -88 120 0 16 29 7 60 -18z m127 -21 c43 -45 62 -87 48 -101 -9 -9 -71 62
-96 111 -27 52 -6 48 48 -10z m-312 15 c12 -16 19 -19 22 -10 8 22 30 13 64
-27 60 -70 114 -171 90 -171 -5 0 -20 14 -33 30 -13 17 -33 43 -45 58 l-22 27
19 -54 c11 -30 19 -55 17 -56 -1 -1 -14 -9 -29 -18 -15 -9 -39 -17 -53 -17
-14 0 -25 -4 -25 -10 0 -22 -36 -8 -57 23 -45 67 -85 158 -79 180 7 27 63 67
93 67 12 0 29 -10 38 -22z m-192 -115 c3 -10 14 -34 25 -53 28 -50 56 -119 50
-125 -6 -6 -37 23 -68 65 -14 18 -35 44 -47 57 -26 27 -29 43 -11 61 18 18 45
15 51 -5z m-1437 -29 c9 -37 -9 -51 -41 -30 -21 14 -24 20 -15 36 16 29 48 25
56 -6z m1404 -101 c0 -32 0 -32 -21 -15 -20 17 -59 94 -59 117 0 8 6 15 13 18
17 6 67 -82 67 -120z"/>
<path d="M8678 16443 c18 -2 45 -2 60 0 15 2 0 4 -33 4 -33 0 -45 -2 -27 -4z"/>
<path d="M8317 16381 c-21 -10 -44 -24 -50 -31 -7 -7 -7 -11 -2 -8 6 3 31 15
58 27 26 12 47 24 47 26 0 8 -13 4 -53 -14z"/>
<path d="M10275 16279 c-26 -5 -28 -7 -10 -13 22 -8 192 -75 213 -83 6 -3 12
-1 12 5 0 8 -30 25 -150 81 -22 10 -46 14 -65 10z"/>
<path d="M7926 16203 c-67 -17 -278 -157 -346 -229 -51 -54 -52 -56 -15 -29
22 16 54 41 71 55 36 31 183 127 236 155 33 17 90 56 78 54 -3 -1 -13 -3 -24
-6z"/>
<path d="M8130 16177 c-38 -20 -51 -34 -34 -39 13 -4 74 27 79 40 9 24 1 24
-45 -1z"/>
<path d="M10802 15905 c2 -5 23 -50 48 -100 33 -67 45 -84 48 -68 4 25 -35
102 -74 148 -14 17 -24 26 -22 20z"/>
<path d="M10988 15813 c-19 -21 -68 -118 -68 -133 0 -23 22 -7 36 27 9 20 27
53 40 72 13 20 24 39 24 43 0 14 -16 9 -32 -9z"/>
<path d="M7062 15798 c3 -7 20 -14 39 -16 l34 -2 -25 15 c-31 18 -53 19 -48 3z"/>
<path d="M10964 15639 c-2 -4 38 -49 90 -101 99 -100 193 -233 234 -333 13
-33 38 -109 54 -170 32 -119 44 -146 33 -75 -30 202 -110 371 -266 566 -38 49
-68 96 -66 104 3 12 -5 15 -35 15 -22 0 -41 -3 -44 -6z"/>
<path d="M8101 14676 c-6 -8 -26 -20 -44 -27 -18 -7 -40 -19 -49 -27 -15 -13
-19 -12 -33 2 -18 18 -35 13 -35 -9 0 -23 18 -27 58 -14 41 13 132 70 132 82
0 12 -17 8 -29 -7z"/>
<path d="M8132 14389 c-52 -26 -82 -62 -82 -99 0 -43 24 -43 76 0 26 22 60 42
76 45 44 10 43 25 -1 25 -22 0 -42 -4 -45 -9 -3 -5 -22 -19 -43 -31 l-36 -21
15 23 c8 13 33 32 56 43 41 20 63 45 39 45 -7 0 -31 -10 -55 -21z"/>
<path d="M8297 14370 c-21 -17 -21 -18 22 -25 26 -4 47 -3 53 3 28 28 -41 49
-75 22z"/>
<path d="M8202 14174 c-12 -8 -29 -29 -38 -47 -24 -44 -14 -180 19 -270 34
-94 72 -134 79 -84 2 14 11 23 26 25 27 4 19 22 -10 22 -17 0 -18 2 -8 15 7 8
18 15 25 15 7 0 20 10 29 23 16 22 16 22 14 -13 -4 -42 12 -52 29 -19 13 25
17 91 7 102 -4 3 -15 2 -25 -4 -15 -7 -22 -4 -36 17 -17 26 -16 27 10 50 15
13 27 31 27 41 0 31 -44 96 -79 120 -40 27 -40 27 -69 7z"/>
<path d="M7540 14036 c0 -96 -8 -114 -65 -155 -69 -49 -85 -81 -85 -171 0 -42
-7 -95 -16 -120 -10 -28 -14 -68 -12 -105 l3 -60 -55 -6 c-113 -12 -199 -62
-145 -83 20 -7 9 -33 -17 -40 -24 -6 -61 11 -53 23 13 22 -27 17 -53 -7 -17
-15 -51 -44 -76 -65 -41 -34 -66 -80 -66 -124 0 -21 50 -63 76 -63 61 0 147
80 174 162 18 51 21 54 82 80 76 32 170 38 244 16 25 -7 37 -20 55 -61 22 -48
24 -50 27 -24 2 15 -6 56 -17 90 l-21 62 -59 17 c-52 16 -59 21 -65 49 -10 51
-7 102 9 155 8 27 15 78 15 112 0 77 15 106 77 147 24 17 49 40 54 53 12 32
12 192 -1 192 -6 0 -10 -31 -10 -74z m-100 -667 c0 -5 -43 -9 -97 -9 -106 0
-118 12 -20 20 72 6 117 1 117 -11z m-337 -107 c26 -3 21 -48 -8 -78 -14 -14
-25 -28 -26 -32 -1 -20 -61 -53 -91 -50 -29 3 -33 7 -36 36 -3 28 4 40 44 81
47 48 49 49 117 43z"/>
<path d="M10109 14032 c-33 -36 -31 -45 4 -18 20 16 37 30 37 32 0 10 -27 1
-41 -14z"/>
<path d="M6132 14009 c2 -8 67 -46 144 -84 76 -39 166 -85 198 -103 66 -35 76
-38 76 -19 0 7 -15 20 -32 28 -18 8 -64 32 -103 51 -59 31 -249 124 -279 137
-5 2 -6 -3 -4 -10z"/>
<path d="M10130 13832 c0 -5 11 -15 25 -22 14 -7 25 -19 25 -27 0 -7 5 -13 10
-13 18 0 11 19 -17 45 -28 26 -43 31 -43 17z"/>
<path d="M9959 13653 c5 -10 16 -27 25 -38 15 -20 15 -20 16 1 0 11 -8 28 -18
37 -24 22 -35 22 -23 0z"/>
<path d="M13387 13578 c-26 -41 -29 -66 -12 -90 l17 -23 -6 28 c-4 17 0 41 10
63 19 40 13 57 -9 22z"/>
<path d="M1005 13513 c-119 -45 -192 -89 -214 -131 -20 -38 12 -188 61 -287
30 -59 101 -140 398 -453 80 -84 149 -162 154 -173 5 -10 12 -19 16 -19 5 0
39 -37 78 -82 38 -46 78 -92 88 -103 11 -11 51 -58 90 -105 39 -47 111 -128
159 -180 198 -213 200 -215 288 -334 78 -104 104 -181 75 -218 -12 -15 -164
-58 -206 -58 -41 0 -270 -72 -347 -109 -44 -21 -103 -57 -132 -79 -66 -53
-136 -153 -151 -217 -29 -118 -42 -454 -21 -530 6 -22 31 -70 54 -106 39 -60
51 -71 117 -103 41 -20 81 -36 89 -36 8 0 34 -7 59 -16 65 -23 249 -70 365
-93 202 -39 341 -46 972 -46 l601 0 27 -25 c38 -35 53 -76 70 -188 30 -199 13
-356 -56 -501 -17 -36 -43 -91 -56 -121 -87 -192 -119 -260 -178 -376 -36 -71
-70 -136 -75 -144 -21 -36 -140 -281 -140 -291 0 -5 -11 -27 -25 -47 -31 -46
-34 -73 -5 -47 11 10 20 24 20 32 0 10 94 208 141 295 5 10 26 50 47 90 21 40
67 127 102 193 156 297 257 512 270 575 17 83 15 286 -4 376 -8 38 -27 101
-41 139 -15 39 -29 77 -32 86 -4 15 31 17 354 25 630 15 713 12 713 -26 0 -10
3 -20 8 -22 4 -1 15 -25 24 -53 16 -49 16 -50 17 -15 1 19 -3 49 -8 67 -7 24
-6 33 5 37 22 8 34 -28 37 -112 2 -43 7 -84 11 -91 4 -6 10 -93 13 -191 5
-144 3 -197 -12 -277 -21 -121 -21 -120 -90 -273 -31 -69 -70 -157 -86 -197
-15 -39 -53 -124 -84 -188 -30 -65 -55 -119 -55 -121 0 -5 -86 -186 -190 -399
-48 -99 -135 -283 -194 -410 -59 -126 -123 -261 -141 -300 -65 -137 -115 -245
-115 -251 0 -4 -20 -47 -44 -98 -66 -137 -136 -287 -136 -293 0 -2 -28 -64
-61 -136 -34 -73 -79 -169 -100 -215 -22 -45 -39 -84 -39 -87 0 -2 -13 -32
-29 -67 -16 -35 -37 -81 -46 -103 -10 -22 -31 -67 -47 -100 -17 -33 -39 -82
-50 -110 -11 -27 -31 -74 -44 -105 -30 -65 -82 -183 -99 -225 -27 -65 -79
-183 -102 -235 -14 -30 -38 -89 -55 -130 -16 -41 -35 -88 -42 -105 -8 -16 -17
-41 -21 -55 -3 -14 -15 -43 -25 -65 -20 -43 -84 -221 -123 -345 -18 -56 -29
-76 -43 -78 -10 -2 -29 -8 -41 -14 -14 -7 -89 -9 -225 -5 -159 4 -224 10 -298
27 -145 33 -168 38 -270 54 -52 9 -119 24 -148 33 -62 20 -62 1 -4 193 23 74
58 189 77 255 56 185 127 372 210 550 49 104 108 239 149 340 21 50 43 104 51
120 7 17 21 50 31 75 9 25 36 86 60 137 24 51 44 95 44 98 0 6 7 23 75 170 20
44 45 100 55 125 10 25 42 97 70 160 28 63 79 178 112 255 33 77 76 174 95
215 19 41 50 112 69 157 19 46 43 104 55 131 71 158 90 205 85 210 -5 4 -146
-284 -146 -299 0 -5 -8 -23 -18 -41 -10 -18 -26 -53 -37 -78 -10 -25 -40 -91
-67 -147 -26 -57 -48 -105 -48 -107 0 -3 -16 -39 -35 -80 -19 -42 -35 -78 -35
-81 0 -5 -62 -147 -102 -235 -12 -25 -36 -79 -53 -120 -92 -215 -119 -276
-126 -285 -4 -6 -22 -49 -39 -96 -17 -48 -42 -101 -55 -120 -14 -18 -25 -37
-25 -41 0 -8 -154 -369 -211 -495 -10 -23 -19 -45 -19 -48 0 -3 -8 -25 -19
-48 -41 -91 -58 -134 -75 -192 -11 -33 -30 -89 -44 -125 -43 -113 -83 -223
-102 -280 -10 -30 -33 -93 -50 -140 -49 -129 -49 -132 -1 -153 36 -16 39 -20
28 -38 -14 -23 -43 -24 -152 -4 -145 25 -175 35 -175 55 0 24 92 70 188 95 43
11 72 24 72 32 0 7 -3 13 -6 13 -25 0 -176 -46 -213 -65 -43 -22 -91 -59 -91
-71 0 -3 -7 -40 -16 -82 -23 -109 -14 -502 15 -687 32 -197 81 -420 102 -457
5 -10 9 -23 9 -29 0 -22 68 -156 89 -176 35 -33 163 -61 346 -78 l169 -15 61
-58 c89 -85 203 -167 269 -192 52 -19 330 -68 396 -69 24 0 105 -7 180 -15 74
-9 176 -17 225 -19 90 -2 90 -3 88 -28 -1 -15 -18 -63 -39 -108 l-37 -82 -42
7 c-53 7 -75 -12 -75 -66 0 -34 3 -39 33 -49 19 -7 170 -16 372 -22 187 -5
487 -17 667 -26 434 -21 534 -14 560 42 14 31 -3 55 -39 55 -22 0 -24 3 -18
32 4 18 10 36 14 41 4 4 84 1 177 -7 347 -30 489 -30 637 0 29 6 30 16 10 88
-5 18 0 19 128 12 74 -4 186 -13 249 -21 128 -16 318 -28 805 -50 182 -8 445
-21 585 -29 140 -8 374 -20 520 -26 146 -6 348 -15 450 -20 102 -6 322 -17
490 -26 168 -8 334 -19 370 -24 36 -5 111 -10 167 -10 57 0 105 -4 108 -10 4
-6 55 -10 120 -10 65 0 116 -4 120 -10 3 -5 23 -10 43 -9 33 1 34 2 12 9 -17
5 1 8 58 9 46 1 81 -3 78 -7 -13 -22 267 -46 714 -62 162 -5 324 -12 360 -15
36 -3 277 -15 535 -26 949 -40 933 -39 1524 -68 91 -5 172 -6 181 -4 22 6 34
-12 50 -70 7 -26 17 -50 21 -53 5 -3 9 -16 9 -29 0 -27 36 -56 93 -75 47 -15
53 -29 32 -69 -9 -18 -13 -36 -10 -41 11 -18 116 -31 365 -44 140 -8 287 -14
325 -15 39 -1 237 -8 442 -17 204 -8 383 -13 398 -10 34 6 55 24 55 47 0 10 5
21 11 25 6 3 9 17 6 30 -5 26 0 28 73 40 25 3 104 28 175 54 134 49 337 114
390 125 17 4 39 11 50 15 36 17 199 67 255 79 30 7 64 16 75 21 11 5 65 23
120 40 243 78 356 151 385 248 22 73 51 189 70 282 35 169 34 164 60 171 14 4
54 8 90 8 77 2 273 40 348 69 123 47 235 150 293 268 26 54 33 84 37 145 5 88
-18 204 -49 243 -10 13 -19 29 -19 34 0 5 -20 32 -44 59 -31 34 -67 60 -116
83 -126 57 -109 55 -648 70 -347 9 -511 15 -932 35 -58 3 -168 7 -245 10 -77
3 -194 10 -260 15 -66 5 -196 12 -290 15 -138 5 -485 24 -735 40 -25 2 -126 6
-225 10 -99 3 -202 8 -230 10 -153 11 -943 49 -1355 65 -140 5 -282 12 -315
15 -33 3 -190 10 -350 15 -159 6 -418 17 -575 25 -157 7 -361 16 -455 20 -184
6 -1146 48 -1495 65 -118 6 -413 17 -655 25 -242 8 -453 17 -470 20 -16 2 -90
5 -162 7 -73 1 -133 6 -133 11 0 4 20 33 44 63 111 136 205 314 214 406 3 36
-1 56 -17 83 -25 43 -26 54 -6 91 8 16 15 49 15 74 l0 45 -19 -25 c-11 -13
-22 -37 -25 -52 -3 -15 -13 -36 -23 -46 -10 -10 -31 -37 -48 -61 l-29 -43 -81
7 c-83 7 -159 27 -185 50 -8 7 -31 20 -50 30 -19 9 -70 53 -112 98 -74 78 -77
84 -77 127 1 54 -26 131 -71 196 -17 26 -36 58 -41 71 -5 13 -13 23 -18 23 -5
0 -11 10 -15 23 -3 12 -35 58 -71 101 -54 66 -64 83 -58 105 3 14 8 29 10 34
8 15 12 147 4 147 -15 0 -33 -56 -39 -120 -2 -36 -13 -81 -23 -101 -10 -20
-16 -45 -13 -55 3 -10 -2 -28 -10 -39 -12 -17 -12 -23 6 -47 10 -16 15 -28 9
-28 -10 0 -21 -34 -36 -107 -6 -29 -3 -34 20 -45 27 -12 95 -129 95 -163 0
-25 -20 -17 -38 17 -9 17 -24 38 -32 47 -30 32 -50 70 -44 85 3 8 -1 16 -11
18 -24 4 -32 83 -9 92 12 5 14 14 9 38 -8 37 -23 60 -35 53 -4 -2 -5 7 -2 21
2 13 -1 44 -8 68 -14 51 -6 77 16 49 7 -10 14 -37 14 -60 0 -23 5 -45 11 -49
15 -9 7 132 -8 147 -5 5 -23 13 -40 18 l-31 9 5 -66 c3 -37 11 -81 17 -97 7
-17 10 -39 6 -49 -6 -17 -9 -14 -26 18 -14 29 -29 42 -58 52 -43 14 -136 22
-136 11 0 -4 0 -11 0 -17 0 -5 7 -10 15 -10 15 0 42 -39 28 -41 -48 -7 -143 7
-187 27 -28 13 -64 24 -81 24 -21 0 -48 15 -89 48 -85 68 -96 75 -103 68 -3
-3 1 -14 10 -24 10 -10 17 -21 17 -24 0 -6 -39 -13 -184 -33 -99 -13 -112 -13
-133 1 -54 35 -49 7 9 -56 82 -90 193 -229 263 -330 32 -47 75 -107 96 -135
54 -72 331 -341 421 -408 68 -50 233 -157 243 -157 3 0 24 -13 47 -29 270
-182 486 -288 535 -263 29 15 43 3 43 -36 0 -43 -35 -98 -70 -110 -16 -6 -43
-4 -75 5 -27 8 -86 22 -130 32 -66 14 -93 26 -150 68 -38 28 -157 103 -264
167 -211 127 -212 127 -417 325 -148 143 -190 196 -399 496 -137 198 -273 353
-336 386 -22 11 -39 23 -39 27 1 14 166 123 212 140 55 19 64 37 16 27 -80
-17 -163 -66 -251 -149 -21 -20 -42 -36 -46 -36 -14 0 -10 -55 9 -119 38 -129
140 -313 261 -473 92 -122 144 -176 235 -244 71 -54 93 -81 56 -70 -9 2 -48
14 -87 25 -38 11 -110 27 -160 36 -49 8 -119 22 -155 30 -139 30 -238 46 -266
43 l-29 -4 25 -12 c14 -7 102 -33 195 -57 125 -32 159 -44 128 -45 -23 0 -45
-4 -48 -10 -3 -5 -17 -10 -31 -10 -13 0 -24 -4 -24 -10 0 -5 17 -10 37 -10 29
0 34 -3 25 -12 -17 -17 -15 -25 8 -31 11 -3 20 -13 20 -22 0 -11 -6 -15 -17
-11 -10 3 -69 8 -130 12 -81 5 -113 3 -113 -5 0 -6 13 -11 29 -11 16 0 34 -7
41 -15 11 -13 10 -18 -6 -29 -11 -9 -21 -10 -25 -5 -3 6 -11 4 -18 -5 -10 -12
-8 -15 11 -19 13 -2 -1 -3 -30 -2 -38 1 -51 -2 -48 -11 6 -14 -38 -36 -59 -28
-10 4 -15 0 -15 -12 -1 -18 -2 -18 -13 -2 -7 9 -26 18 -42 20 -17 1 -29 8 -28
14 1 5 -15 11 -35 12 -37 1 -37 1 -14 -14 12 -9 22 -25 22 -35 0 -9 7 -25 16
-33 14 -15 12 -16 -18 -16 -19 0 -40 -6 -47 -12 -11 -11 -12 -10 -6 1 5 9 2
12 -11 8 -51 -14 -113 -19 -264 -22 -196 -3 -193 -2 -185 -15 4 -6 -6 -10 -22
-9 -43 1 -160 23 -169 32 -12 11 -84 8 -84 -4 0 -8 -5 -7 -16 2 -11 9 -39 13
-81 11 -52 -1 -70 -6 -93 -25 -22 -19 -46 -26 -112 -32 -45 -5 -94 -8 -108 -7
-16 0 -19 -1 -7 -4 9 -3 15 -10 12 -15 -4 -5 1 -9 9 -9 9 0 16 -5 16 -11 0 -7
-7 -8 -17 -4 -34 15 -139 35 -259 50 -67 8 -143 22 -170 29 -27 8 -121 29
-209 46 -220 43 -335 71 -335 81 0 11 180 99 202 99 9 0 19 4 22 9 3 4 43 18
88 31 46 12 101 28 123 35 22 7 82 21 134 31 90 17 97 17 185 0 118 -24 646
-202 671 -227 5 -5 21 -9 36 -9 15 0 32 -6 38 -13 10 -13 70 -29 156 -42 46
-7 401 10 428 21 32 12 13 38 -53 71 -36 18 -72 41 -80 50 -8 10 -33 24 -55
32 -85 29 -176 73 -290 140 -65 39 -122 68 -126 65 -5 -3 -9 -1 -9 5 0 14 -68
53 -80 46 -5 -3 -10 -2 -10 3 0 5 -26 17 -57 27 -132 39 -154 47 -166 65 -14
21 -125 40 -230 40 -97 0 -107 5 -107 54 0 24 23 107 56 201 30 88 72 210 94
270 55 160 109 306 124 340 8 17 26 63 40 102 14 40 34 90 45 111 22 44 94
252 89 258 -6 5 -34 -52 -73 -148 -50 -125 -104 -258 -119 -293 -7 -16 -26
-64 -41 -105 -16 -41 -44 -113 -63 -160 -19 -47 -45 -113 -57 -147 -13 -34
-31 -77 -39 -95 -23 -49 -106 -305 -119 -368 -10 -45 -17 -57 -46 -74 -49 -28
-102 -35 -215 -25 -55 5 -184 15 -285 24 -100 8 -216 12 -257 9 -70 -6 -85 -1
-66 22 5 5 21 43 36 84 15 41 39 102 53 135 32 75 130 314 173 420 18 44 43
103 55 130 13 28 33 73 45 100 12 28 49 107 81 178 33 70 59 129 59 131 0 2
40 87 90 189 49 102 90 188 90 192 0 3 15 38 34 78 72 153 116 249 116 254 0
3 20 46 44 97 42 87 74 157 118 256 11 25 50 106 86 180 36 74 77 162 92 195
32 70 118 250 200 420 48 99 238 506 270 580 5 11 27 60 50 108 22 49 40 91
40 93 0 2 11 27 24 56 13 29 38 89 56 133 17 44 39 98 49 120 30 65 54 202 57
317 1 59 5 112 9 117 3 6 47 32 97 58 77 41 98 57 135 107 41 55 93 154 93
176 0 15 31 18 210 15 229 -4 252 -7 261 -33 5 -12 9 -95 11 -184 5 -253 -23
-419 -96 -585 -20 -46 -51 -118 -70 -160 -39 -91 -133 -282 -146 -298 -10 -12
-74 -132 -107 -200 -13 -27 -29 -58 -34 -68 -30 -55 -133 -267 -179 -367 -29
-63 -89 -191 -135 -285 -154 -317 -328 -714 -305 -700 5 3 10 12 10 20 0 7 4
15 8 17 9 3 62 113 62 128 0 5 13 33 29 62 16 29 36 78 46 108 10 30 23 62 30
70 7 8 27 47 45 85 18 39 63 134 101 212 38 78 69 145 69 148 0 7 182 370 258
518 173 331 208 398 246 466 147 268 183 412 206 816 5 94 12 180 16 193 10
36 41 41 191 35 78 -3 162 -1 192 5 37 7 75 7 117 0 43 -8 67 -7 80 0 15 9 6
12 -46 12 l-65 1 69 24 c38 14 75 30 83 36 16 14 15 15 42 -38 15 -31 28 -43
53 -49 18 -5 242 -7 498 -6 256 1 502 -2 548 -6 78 -7 86 -6 125 17 23 14 42
20 44 14 7 -21 32 -48 38 -41 4 3 9 26 11 50 3 30 2 37 -4 23 -20 -44 -39 375
-23 498 13 103 46 238 67 279 19 36 18 56 -6 63 -11 3 -24 14 -30 24 -5 10
-49 45 -97 79 -48 33 -116 85 -151 116 -63 56 -63 56 -128 56 -76 0 -77 -13
-2 -29 37 -8 69 -26 117 -64 73 -59 212 -156 252 -178 l27 -14 -35 -90 c-19
-49 -39 -127 -46 -172 -6 -46 -15 -83 -20 -83 -5 0 -29 18 -53 40 -24 22 -49
41 -56 41 -25 2 -34 5 -71 21 -43 20 -348 37 -751 44 -229 4 -266 9 -266 35 0
5 80 9 178 10 97 0 186 4 196 8 19 7 19 8 0 16 -10 4 -102 9 -204 12 -102 2
-197 7 -210 10 -14 4 -54 21 -89 40 -64 33 -133 44 -146 22 -10 -15 -1 -20 42
-26 86 -10 118 -25 167 -75 56 -58 89 -125 89 -183 -1 -22 3 -44 7 -50 4 -5 4
-19 -1 -30 -5 -14 -8 -16 -9 -5 -2 8 -2 18 -1 22 0 4 -16 4 -37 2 -28 -4 -33
-3 -22 5 13 9 12 11 -5 9 -11 -1 -37 2 -59 6 -29 7 -41 5 -48 -5 -7 -10 -8 -8
-5 9 3 12 1 22 -4 22 -5 0 -9 -11 -9 -25 0 -14 -4 -25 -10 -25 -5 0 -10 11
-10 23 0 43 -180 206 -229 208 -9 0 -308 0 -665 -1 -526 -1 -662 -4 -718 -15
-84 -18 -108 -30 -108 -54 0 -10 -7 -24 -15 -31 -12 -10 -15 -9 -14 6 1 37 24
84 60 122 35 38 37 39 125 46 90 7 176 23 139 25 -36 3 -66 26 -192 151 -142
142 -172 183 -155 211 7 10 12 24 12 31 0 6 7 19 15 28 14 15 14 19 -2 38 -17
20 -55 31 -242 76 -65 16 -100 41 -170 120 -14 17 -32 35 -39 40 -21 18 -253
247 -296 294 -22 23 -41 40 -44 38 -9 -10 208 -259 390 -451 64 -67 70 -91 34
-129 -35 -39 -54 -35 -95 17 -13 17 -12 18 15 11 16 -4 32 -12 36 -18 4 -6 10
-8 13 -4 6 6 -81 110 -195 233 -30 32 -82 88 -115 124 -71 78 -195 201 -195
194 0 -4 38 -56 70 -96 8 -11 30 -34 48 -52 17 -18 32 -37 32 -41 1 -5 14 -20
30 -34 17 -13 30 -29 30 -34 0 -6 17 -27 37 -48 20 -21 34 -40 32 -43 -10 -9
-354 346 -404 416 -11 15 -30 34 -42 40 -13 7 -23 16 -23 20 0 12 -53 89 -62
89 -4 0 -8 6 -8 13 0 7 -12 25 -26 40 -24 26 -27 66 -4 52 6 -3 13 1 16 9 4
11 19 16 43 16 31 0 48 -9 97 -54 32 -29 92 -94 132 -143 l74 -89 81 -2 c44
-1 85 -6 91 -12 5 -5 19 -10 30 -10 17 1 14 7 -19 32 -22 18 -139 129 -260
249 -311 305 -385 374 -385 355 0 -8 96 -109 343 -360 217 -219 219 -221 186
-224 -35 -4 -62 19 -179 157 -30 35 -79 83 -108 107 -46 38 -55 42 -83 34 -17
-5 -40 -5 -53 0 -22 8 -152 40 -321 78 -49 12 -123 26 -164 32 -41 6 -112 19
-158 29 l-83 19 -169 173 c-94 96 -170 169 -171 163 -1 -24 405 -463 417 -451
3 4 -6 20 -20 35 -33 34 -34 47 -4 37 23 -7 86 -20 177 -35 30 -5 96 -18 145
-30 50 -11 115 -25 145 -30 70 -13 160 -37 168 -45 4 -4 0 -10 -8 -15 -52 -30
-69 -68 -70 -155 0 -48 38 -134 86 -191 38 -47 42 -59 17 -49 -10 4 -71 15
-136 26 -121 20 -174 40 -238 90 -72 57 -501 512 -934 990 -70 77 -135 164
-135 180 0 8 5 20 12 27 9 9 -5 12 -65 12 l-77 0 0 -35 c0 -19 4 -35 8 -35 5
0 17 -17 28 -38 12 -21 28 -49 38 -64 17 -26 17 -26 -3 -21 -11 3 -23 14 -26
24 -7 22 -74 79 -92 79 -7 0 -23 12 -36 26 -12 15 -42 36 -67 47 -31 14 -40
21 -27 24 9 3 17 9 17 15 0 5 -3 8 -7 6 -5 -3 -23 -10 -40 -17 -18 -7 -33 -17
-33 -22 0 -5 -7 -9 -16 -9 -10 0 -14 -7 -12 -20 2 -10 0 -19 -4 -20 -23 -1
-28 1 -28 14 0 8 -6 17 -12 19 -7 3 -1 6 15 6 17 1 27 6 27 16 0 8 7 15 16 15
8 0 12 5 9 10 -3 6 -26 10 -51 10 -28 0 -43 -4 -39 -10 3 -5 -1 -10 -9 -10
-23 0 -20 17 4 25 19 6 19 7 2 30 -27 37 -107 77 -86 43 5 -7 2 -9 -9 -5 -25
10 -26 -16 0 -40 12 -12 23 -27 23 -32 0 -6 8 -15 19 -20 10 -6 65 -59 122
-118 57 -59 265 -267 462 -462 196 -195 357 -359 357 -365 0 -5 12 -22 27 -38
14 -15 23 -31 19 -35 -5 -5 -117 102 -250 237 -133 135 -394 396 -579 580
-314 311 -341 340 -374 408 -19 40 -35 89 -35 108 0 33 -1 34 -36 33 -21 -1
-55 -8 -77 -16z m1586 -1578 c52 -49 194 -186 315 -305 308 -300 331 -321 404
-378 36 -29 70 -55 75 -60 13 -10 116 -84 136 -97 173 -112 210 -135 223 -135
7 0 13 -6 13 -14 0 -47 -318 142 -497 294 -132 113 -767 757 -790 801 -12 24
-12 24 7 4 11 -11 63 -60 114 -110z m1372 -453 c-7 -16 -15 -8 -32 32 l-12 29
24 -23 c14 -13 22 -30 20 -38z m81 -76 c7 3 18 -2 25 -10 11 -13 9 -15 -18
-13 -26 2 -31 6 -30 27 1 16 3 19 6 8 2 -9 10 -15 17 -12z m-1269 -561 c160 0
432 1 605 3 212 2 314 -1 313 -8 -4 -13 13 -13 37 0 22 12 838 21 845 10 3 -4
-4 -15 -15 -25 -57 -52 -90 -166 -90 -313 0 -99 47 -293 79 -325 15 -15 14
-37 -1 -37 -7 0 -204 -3 -438 -7 -234 -3 -436 -6 -449 -6 -22 1 -77 55 -93 92
-4 10 -7 4 -7 -16 -2 -65 -31 -29 -57 69 -18 71 -23 359 -6 381 8 11 24 75 19
79 -1 1 -256 4 -567 8 -601 7 -626 9 -656 55 -31 48 -16 55 93 47 54 -4 229
-7 388 -7z m-1366 -117 c1 -91 19 -263 33 -318 6 -25 22 -64 35 -87 13 -24 20
-43 15 -43 -15 0 -69 64 -93 110 -23 43 -24 53 -21 225 1 99 5 194 9 210 l7
30 7 -30 c4 -16 7 -60 8 -97z m3151 -410 c0 -5 9 -21 20 -35 11 -14 20 -30 20
-34 0 -16 -32 -10 -46 9 -16 20 -19 86 -4 77 6 -3 10 -11 10 -17z m1842 -4570
c23 -13 45 -24 47 -25 2 -1 -2 -9 -8 -17 -7 -8 -10 -20 -6 -26 3 -5 2 -10 -3
-10 -6 0 -13 11 -16 24 -3 14 -15 28 -26 31 -17 5 -49 45 -36 45 2 0 24 -10
48 -22z m140 -25 c14 -16 21 -53 10 -53 -2 0 -12 10 -23 23 -32 38 -19 67 13
30z m158 -56 c0 -31 -3 -38 -10 -27 -13 20 -13 83 0 75 6 -3 10 -25 10 -48z
m93 47 c9 -9 -4 -34 -18 -34 -7 0 -15 9 -18 20 -4 14 0 20 12 20 10 0 20 -3
24 -6z m-12 -140 c13 -36 7 -39 -24 -10 -26 24 -26 36 0 36 7 0 18 -12 24 -26z
m25 -274 c32 -6 60 -10 62 -10 1 0 2 -8 2 -17 0 -10 10 -45 21 -78 29 -88 27
-202 -7 -372 -7 -34 -35 -29 -109 18 -36 22 -65 42 -65 44 0 2 10 21 22 42 20
32 23 52 23 138 0 67 -6 119 -18 159 -17 56 -16 126 2 98 4 -7 34 -17 67 -22z
m-2835 -347 c24 6 167 -30 209 -53 12 -6 42 -13 66 -16 55 -5 65 -10 57 -29
-4 -11 2 -15 21 -15 14 0 26 5 26 10 0 12 84 13 108 1 41 -21 69 -31 97 -34
l30 -3 -29 -9 c-19 -5 -36 -4 -47 4 -10 6 -28 11 -38 11 -11 0 -23 5 -26 10
-10 16 -45 12 -52 -7 -4 -11 3 -24 23 -40 27 -21 27 -23 8 -23 -22 0 -145 48
-196 75 -14 8 -33 15 -42 15 -8 0 -30 6 -48 14 -18 7 -63 21 -99 30 -36 8 -87
25 -115 38 l-49 22 30 6 c17 3 33 2 36 -3 4 -6 17 -7 30 -4z m1889 -42 c0 -4
12 -6 28 -4 22 3 24 2 10 -7 -10 -6 -34 -8 -58 -4 -28 5 -37 10 -28 15 17 11
48 11 48 0z m336 -87 c24 -14 44 -31 44 -37 0 -9 -2 -9 -8 0 -4 6 -29 21 -55
32 -26 11 -47 23 -47 26 0 11 23 4 66 -21z m-4753 -80 c-3 -8 2 -17 11 -20 11
-4 16 -18 15 -48 0 -25 -3 -34 -7 -24 -12 28 -12 -248 -1 -382 18 -221 59
-464 118 -695 36 -142 23 -166 -31 -57 -34 67 -39 83 -77 222 -77 290 -106
593 -82 874 7 77 14 143 16 147 9 13 44 -2 38 -17z m3217 -10 c0 -18 -14 -18
-30 1 -16 19 -3 40 16 24 8 -6 14 -18 14 -25z m-127 2 c19 -13 38 -22 41 -18
3 3 6 0 6 -6 0 -15 -36 -16 -45 -2 -3 6 -17 10 -30 10 -22 0 -40 22 -28 34 10
10 19 7 56 -18z m1570 -62 c-5 -15 -44 -19 -57 -7 -4 4 3 15 16 24 25 19 51 9
41 -17z m-365 -81 c2 -9 -9 -13 -37 -13 -44 0 -64 16 -29 23 36 7 61 3 66 -10z
m-483 -13 c-3 -5 -1 -11 4 -14 5 -4 12 -2 16 4 8 13 45 13 45 0 0 -5 -10 -10
-22 -11 -13 0 -31 -2 -40 -4 -10 -2 -18 3 -18 11 0 8 -4 14 -10 14 -5 0 -7 -6
-4 -13 6 -17 -50 -17 -68 1 -9 9 -9 12 0 12 7 0 12 -4 12 -8 0 -4 9 -8 20 -8
12 0 19 5 16 13 -3 6 5 13 17 15 26 5 39 0 32 -12z m2675 -81 c113 -5 340 -14
505 -19 306 -10 609 -22 975 -40 113 -6 331 -15 485 -20 658 -23 1079 -40
1215 -50 162 -11 463 -24 925 -40 171 -6 425 -18 565 -26 140 -8 315 -17 388
-21 75 -3 132 -10 132 -16 0 -6 -111 -8 -307 -4 -276 5 -482 13 -1173 47 -353
17 -625 30 -910 41 -268 10 -442 17 -915 39 -424 19 -718 31 -956 39 -130 5
-242 11 -248 15 -6 4 -139 9 -294 11 -236 3 -376 9 -732 28 -21 1 -31 8 -33
21 -4 18 1 19 84 12 49 -4 181 -11 294 -17z m-3915 -27 c22 -6 84 -22 138 -36
55 -14 138 -39 185 -55 48 -17 100 -32 115 -35 25 -4 67 -37 143 -110 12 -12
34 -32 48 -45 15 -13 23 -28 19 -32 -12 -12 -105 11 -128 30 -20 18 -56 40
-129 81 -47 26 -260 97 -401 134 -55 15 -114 33 -132 41 -17 8 -35 15 -40 15
-19 0 -55 33 -44 40 13 7 159 -11 226 -28z m327 -11 c15 -8 25 -18 22 -23 -3
-4 1 -8 8 -9 42 -3 58 -8 86 -27 22 -16 32 -19 35 -10 3 7 5 1 4 -14 -1 -16
-4 -28 -7 -28 -15 0 -59 38 -53 45 5 4 3 5 -4 1 -6 -3 -47 11 -89 33 -55 28
-72 40 -58 43 23 5 22 6 56 -11z m2611 -52 c20 -5 37 -14 37 -19 0 -6 9 -10
20 -10 19 0 46 -11 165 -65 28 -13 59 -25 70 -28 17 -4 16 -5 -5 -7 l-25 -2
25 -8 25 -8 -27 -1 c-16 -1 -28 3 -28 7 0 5 -32 15 -70 22 -64 12 -104 30 -66
30 8 0 18 5 22 11 4 8 -3 9 -23 5 -23 -5 -32 -3 -36 8 -4 9 -18 16 -34 16 -15
0 -39 7 -53 15 -14 8 -33 18 -42 21 -21 7 -24 24 -5 24 6 0 29 -5 50 -11z
m-1038 -28 c3 -6 -5 -15 -17 -22 -22 -12 -22 -11 -8 6 14 17 13 18 -3 12 -10
-4 -25 -7 -33 -7 -9 0 -12 -4 -9 -10 4 -6 -1 -7 -12 -3 -14 6 -13 9 12 19 36
16 62 17 70 5z m2055 -11 c201 -6 385 -15 410 -19 45 -8 45 -9 8 -10 -20 0
-80 -10 -135 -21 -54 -12 -125 -25 -159 -30 -33 -5 -78 -17 -99 -26 -26 -10
-85 -18 -175 -23 -158 -7 -233 0 -260 24 -19 17 -19 19 -2 31 16 12 15 13 -5
14 -14 0 -23 -6 -23 -15 0 -8 -8 -15 -18 -15 -10 0 -22 -3 -26 -7 -11 -12 -80
-33 -106 -32 -19 0 -11 7 35 30 44 22 67 42 86 73 24 39 29 42 65 40 21 -1
203 -8 404 -14z m-2355 0 c4 -6 -27 -9 -87 -8 l-93 2 85 6 c47 3 86 7 87 8 1
1 5 -2 8 -8z m79 -29 c3 -4 18 -6 33 -4 22 4 25 2 13 -6 -20 -15 -50 -13 -80
4 l-25 14 27 1 c15 0 29 -4 32 -9z m-1069 -45 c29 -9 72 -50 77 -71 3 -17 4
-18 20 -2 18 18 53 24 43 7 -4 -6 -10 -8 -15 -5 -4 3 -10 -2 -13 -10 -4 -10 4
-15 31 -18 33 -3 32 -4 -8 -4 -40 0 -50 5 -90 47 -25 25 -53 49 -63 53 -9 3
-17 12 -17 19 0 9 3 10 8 2 4 -6 16 -14 27 -18z m994 20 c-2 -2 -37 -7 -78
-10 -41 -4 -78 -9 -83 -12 -5 -3 -16 -3 -26 1 -34 13 12 24 101 24 49 0 88 -1
86 -3z m4423 -30 c148 -7 270 -15 273 -18 5 -5 -112 -17 -222 -23 -29 -1 -59
-7 -66 -13 -17 -14 -88 -38 -167 -55 -88 -20 -146 -43 -185 -72 -17 -14 -42
-25 -53 -25 -12 0 -22 -6 -22 -13 0 -10 19 -13 73 -13 39 0 135 -5 212 -12 77
-7 187 -17 245 -22 134 -11 274 -49 308 -83 l25 -25 -67 -7 c-37 -4 -162 -2
-279 4 -244 13 -636 31 -782 36 -147 5 -531 24 -600 30 -33 3 -159 10 -280 15
-406 19 -779 40 -875 50 -52 5 -176 12 -275 16 -189 7 -227 12 -203 30 35 27
393 77 526 74 24 -1 67 3 95 9 29 5 93 15 142 21 50 7 123 18 164 26 40 8 101
14 135 15 58 0 91 5 214 28 46 9 325 24 407 23 17 0 78 -1 137 -1 59 0 116 -4
126 -10 10 -5 35 -6 62 -1 28 6 71 5 114 -2 51 -9 73 -8 87 0 21 13 53 16 46
5 -3 -5 19 -9 49 -10 50 -1 55 1 61 24 l6 26 151 -7 c83 -4 271 -13 418 -20z
m-2707 -16 c4 -6 -8 -10 -30 -10 -22 0 -34 4 -30 10 3 6 17 10 30 10 13 0 27
-4 30 -10z m6900 -40 c115 -9 279 -18 685 -40 102 -5 268 -14 370 -20 102 -5
227 -10 278 -10 51 0 91 -3 89 -7 -3 -5 99 -9 226 -11 128 -2 259 -7 292 -12
33 -5 231 -11 441 -14 l380 -5 68 -27 c81 -32 134 -81 166 -151 13 -29 27 -53
32 -53 4 0 8 -12 7 -27 0 -16 -3 -22 -6 -15 -4 10 -8 10 -19 1 -8 -7 -17 -9
-20 -6 -9 8 -43 -21 -79 -68 -14 -19 -15 -16 -9 30 6 44 5 49 -9 37 -13 -11
-17 -8 -31 19 -9 18 -16 37 -16 43 -1 15 -36 56 -48 56 -5 0 -15 7 -23 16 -16
20 -92 58 -144 73 -22 7 -91 18 -154 26 -62 8 -119 19 -125 23 -6 5 -108 10
-226 11 -118 1 -249 6 -290 11 -41 5 -172 12 -290 15 -310 7 -683 22 -700 29
-8 2 -94 7 -190 10 -286 9 -1283 56 -1288 60 -2 3 -1 10 3 16 8 13 417 7 630
-10z m-9227 4 c-5 -4 -57 -12 -123 -18 -27 -3 -40 -3 -27 0 12 3 22 10 22 15
0 5 30 8 66 8 36 -1 64 -3 62 -5z m347 -155 c61 -5 162 -9 225 -9 63 0 192 -4
285 -10 94 -5 292 -14 440 -20 301 -12 394 -16 705 -30 118 -6 361 -14 540
-20 179 -5 438 -16 575 -25 138 -8 376 -19 530 -25 357 -12 709 -29 760 -35
60 -7 190 -13 505 -25 157 -6 382 -15 500 -20 118 -5 330 -14 470 -20 140 -5
365 -14 500 -20 509 -21 793 -31 1275 -45 175 -5 297 -12 670 -35 99 -6 495
-22 880 -36 385 -13 756 -31 825 -39 69 -7 184 -14 255 -14 160 -1 239 -14
319 -50 73 -33 191 -138 193 -173 2 -21 -6 -26 -65 -46 -37 -13 -75 -23 -84
-23 -20 0 -25 -25 -7 -31 6 -2 9 -17 7 -33 -4 -28 -5 -27 -17 18 -7 26 -18 47
-25 47 -6 0 -24 20 -41 44 -36 53 -71 78 -156 112 -62 25 -65 25 -97 8 -30
-16 -44 -17 -141 -6 -59 7 -161 12 -227 12 -66 0 -124 4 -130 9 -5 5 -81 12
-169 15 -88 3 -241 11 -340 16 -99 6 -288 15 -420 20 -132 5 -355 13 -495 19
-140 5 -334 12 -430 15 -169 6 -363 16 -675 36 -82 5 -229 14 -325 20 -96 6
-218 13 -270 16 -52 3 -162 9 -245 14 -82 5 -229 14 -325 20 -294 19 -715 45
-975 60 -450 25 -530 30 -685 39 -375 23 -537 32 -760 41 -129 6 -302 15 -385
20 -145 10 -300 19 -645 39 -201 12 -546 28 -735 36 -143 5 -385 17 -715 35
-102 5 -396 19 -655 30 -258 11 -486 22 -505 24 -19 3 -90 6 -157 7 -68 1
-123 5 -123 10 0 5 7 9 15 9 8 0 15 5 15 11 0 12 338 5 535 -12z m7584 -29
c58 -6 109 -14 115 -20 7 -7 6 -10 -2 -10 -7 0 -12 -4 -12 -10 0 -5 9 -10 20
-10 10 0 23 -6 27 -14 11 -19 131 -29 391 -32 123 -1 226 -5 229 -8 3 -3 19 2
35 10 16 8 37 13 46 10 9 -3 84 -8 166 -11 82 -3 158 -8 170 -11 12 -3 37 2
56 10 l35 14 -35 6 c-19 3 -53 8 -75 11 -22 4 -108 8 -190 11 -83 2 -164 8
-180 12 -31 9 -45 36 -23 45 7 2 135 0 283 -6 149 -5 347 -9 440 -8 153 2 388
-12 960 -59 66 -6 188 -14 270 -20 83 -6 191 -15 240 -20 50 -6 142 -13 205
-16 103 -5 169 -15 295 -46 22 -5 52 -12 68 -15 51 -10 20 -32 -48 -33 -16 0
-41 -9 -55 -20 -14 -11 -40 -20 -58 -20 -18 0 -67 -18 -110 -40 -85 -44 -204
-74 -374 -95 -111 -14 -132 -20 -123 -36 10 -16 -16 -10 -45 11 -15 11 -50 29
-76 41 -45 20 -73 22 -374 29 -179 4 -332 10 -340 13 -8 4 -100 9 -205 12
-174 4 -377 14 -642 31 -57 4 -103 10 -103 15 0 5 -12 4 -26 -1 -14 -6 -59
-10 -100 -10 -67 0 -74 2 -74 20 0 16 -7 20 -30 20 -16 0 -30 5 -30 10 0 6
-12 10 -26 10 -14 0 -23 4 -20 9 10 15 -43 21 -231 27 -121 4 -183 3 -183 -4
0 -6 6 -13 13 -15 6 -3 -4 -5 -23 -5 -19 0 -29 2 -22 5 21 8 13 23 -13 23 -26
0 -34 15 -12 23 6 3 -4 5 -23 5 -19 0 -27 -2 -17 -5 20 -5 23 -23 4 -23 -7 0
-21 -13 -30 -30 -16 -26 -24 -30 -62 -30 -24 0 -46 3 -48 8 -3 4 -81 4 -174 1
-92 -3 -176 -2 -185 3 -9 4 -102 8 -206 8 -104 0 -192 3 -195 6 -24 24 72 74
143 74 14 0 30 4 36 9 5 6 29 13 54 16 33 5 41 4 30 -4 -12 -9 -11 -11 7 -11
26 0 86 48 77 62 -4 6 -24 7 -50 3 -29 -4 -52 -1 -71 8 -15 8 -58 20 -95 27
-38 7 -68 16 -68 21 0 9 6 10 100 28 61 11 405 5 569 -9z m-7393 -383 c11 -11
-69 -8 -86 3 -11 7 -2 9 32 7 26 -1 50 -6 54 -10z m1840 -80 c4 -4 -52 -7
-124 -7 -72 0 -133 4 -137 9 -3 5 5 11 17 13 38 5 236 -7 244 -15z m379 -17
c-4 -6 -51 -10 -113 -9 -71 1 -97 4 -77 9 46 12 197 12 190 0z m201 -10 c69 0
114 -4 114 -10 0 -6 -45 -10 -114 -10 -117 0 -146 4 -146 22 0 6 7 7 16 4 9
-3 67 -6 130 -6z m1073 -51 c30 -5 100 -9 155 -10 56 -1 112 -5 126 -10 25 -8
-199 -5 -577 7 -132 4 -185 10 -193 19 -9 11 29 12 212 8 123 -2 247 -9 277
-14z m681 -39 c10 -7 -7 -10 -58 -10 -46 0 -71 4 -67 10 8 13 105 13 125 0z
m430 -21 c9 -5 -49 -9 -147 -9 -153 0 -193 4 -193 19 0 9 323 1 340 -10z m500
-19 c85 -5 211 -12 280 -15 157 -7 456 -22 710 -35 107 -6 292 -15 410 -21
319 -14 573 -27 775 -39 99 -6 277 -15 395 -21 118 -5 294 -13 390 -19 96 -5
274 -14 395 -19 637 -30 710 -36 721 -52 3 -5 -31 -9 -75 -9 -44 0 -82 4 -85
8 -3 5 -83 10 -178 12 -95 1 -189 4 -208 7 -19 2 -134 8 -255 14 -121 6 -296
14 -390 19 -545 29 -801 41 -1205 59 -129 6 -327 15 -440 21 -113 6 -299 15
-415 20 -210 9 -456 22 -785 40 -96 6 -259 13 -363 16 -158 6 -184 9 -170 20
20 14 206 12 493 -6z"/>
<path d="M3644 10798 c-80 -62 -90 -78 -106 -183 -24 -150 -17 -312 14 -331 8
-5 9 26 5 107 -8 130 6 282 30 319 8 14 35 44 60 68 48 45 46 57 -3 20z"/>
<path d="M13393 13443 c3 -10 8 -31 12 -48 6 -27 8 -28 17 -11 7 13 7 20 -1
26 -7 4 -13 17 -14 28 -1 12 -5 22 -10 22 -5 0 -6 -8 -4 -17z"/>
<path d="M1170 13441 c0 -12 19 -24 43 -28 13 -2 17 2 15 14 -3 19 -58 32 -58
14z"/>
<path d="M1222 13362 c-9 -6 -7 -14 8 -30 27 -29 30 -28 30 8 0 30 -13 37 -38
22z"/>
<path d="M1272 13304 c-15 -16 -8 -34 14 -34 8 0 14 9 14 19 0 26 -12 32 -28
15z"/>
<path d="M7438 13248 c48 -89 81 -137 120 -177 64 -65 235 -201 253 -201 18 0
-1 19 -54 54 -103 69 -202 178 -278 309 -22 37 -47 67 -55 67 -12 0 -9 -12 14
-52z"/>
<path d="M12843 13202 c-18 -9 -33 -19 -33 -24 0 -11 18 -10 25 2 3 6 15 10
26 10 11 0 27 7 35 15 14 13 13 15 -3 14 -10 -1 -33 -9 -50 -17z"/>
<path d="M9998 13154 c-3 -2 -51 -6 -106 -8 -55 -2 -109 -9 -119 -15 -16 -9
-16 -11 7 -12 14 -1 28 -1 32 0 3 0 101 1 217 1 116 1 213 5 216 10 3 5 -9 11
-27 14 -52 9 -215 16 -220 10z"/>
<path d="M12324 13120 c-45 -37 -71 -70 -53 -70 17 0 110 88 100 95 -5 2 -26
-9 -47 -25z"/>
<path d="M2990 12800 c147 -142 210 -196 210 -183 0 27 -308 313 -336 313 -5
0 52 -59 126 -130z"/>
<path d="M8965 12902 c-28 -15 -77 -45 -110 -67 -121 -82 -315 -146 -441 -146
-72 0 -258 47 -382 98 -48 19 -105 41 -127 49 l-40 14 32 -28 c48 -40 329
-143 426 -155 44 -6 50 -10 52 -36 1 -11 7 -26 14 -35 11 -13 10 -23 -8 -57
-33 -63 -84 -136 -158 -226 -126 -152 -208 -279 -237 -370 -29 -87 -44 -73
-97 93 -43 134 -73 198 -114 238 -49 50 -65 45 -23 -6 19 -24 51 -83 72 -133
20 -49 41 -99 46 -110 4 -11 14 -36 20 -55 7 -19 19 -48 25 -65 7 -16 15 -38
19 -47 3 -11 15 -18 30 -18 13 0 64 -15 113 -33 170 -65 383 -127 433 -126 23
0 23 1 5 9 -44 18 -213 70 -229 70 -31 0 -16 35 22 52 21 10 46 25 57 34 20
16 20 16 0 8 -43 -15 -60 -10 -57 16 7 49 51 161 97 245 26 47 45 88 43 90 -8
8 -48 -53 -98 -149 -44 -83 -55 -115 -74 -197 -4 -19 -17 -31 -45 -42 -35 -15
-43 -14 -102 3 -35 10 -83 24 -106 30 -32 8 -43 16 -43 30 0 11 3 20 8 20 4 0
16 21 26 48 10 26 24 54 31 62 6 8 24 37 40 64 67 118 221 315 324 414 58 57
97 99 86 94 -11 -6 -28 -20 -38 -32 -25 -29 -44 -12 -26 21 7 13 15 40 19 59
4 29 10 35 30 36 22 0 98 22 155 45 11 4 38 13 60 20 33 10 99 44 197 104 9 5
41 25 72 43 89 53 89 72 1 24z"/>
<path d="M3110 12912 c0 -5 39 -44 87 -88 48 -43 108 -99 134 -124 25 -25 66
-63 90 -84 24 -22 140 -132 257 -245 l213 -205 -6 -51 c-5 -38 -2 -58 13 -84
38 -70 107 -139 187 -187 180 -108 392 -312 458 -441 22 -41 21 -93 0 -133
-17 -31 -17 -32 1 -43 10 -7 69 -53 130 -102 61 -50 138 -110 170 -135 32 -25
73 -57 89 -73 33 -30 83 -45 114 -32 14 5 7 11 -33 26 -28 11 -79 44 -114 74
-34 30 -78 64 -96 77 -44 30 -48 43 -22 78 29 40 35 123 14 187 -19 57 -58
113 -296 417 -109 140 -314 386 -359 432 -65 66 -140 79 -189 34 -12 -11 -26
-20 -32 -20 -6 0 -70 58 -143 128 -146 141 -199 191 -397 373 -205 188 -270
241 -270 221z m989 -734 c15 -13 46 -45 70 -73 23 -27 69 -81 102 -120 192
-224 353 -438 460 -613 42 -67 47 -93 25 -111 -11 -10 -16 -8 -21 8 -5 17 -10
19 -25 11 -23 -12 -50 -3 -50 17 0 7 -11 25 -24 38 -13 13 -26 34 -30 48 -3
13 -20 45 -38 70 -18 26 -46 65 -63 89 -16 23 -88 119 -159 213 -70 93 -155
207 -189 253 -33 45 -64 82 -68 82 -19 0 -16 -20 11 -61 18 -27 25 -45 19 -48
-7 -2 -16 4 -21 13 -5 9 -27 25 -49 36 -22 12 -37 25 -34 30 4 6 1 10 -4 10
-6 0 -11 -5 -11 -11 0 -7 -13 4 -30 22 -32 37 -35 50 -20 79 26 49 101 58 149
18z"/>
<path d="M8572 12578 c-5 -7 -13 -24 -16 -38 l-7 -25 20 25 c18 22 28 50 17
50 -2 0 -8 -6 -14 -12z"/>
<path d="M3172 12514 c123 -134 199 -207 208 -198 12 12 -115 141 -190 196
l-45 32 27 -30z"/>
<path d="M8520 12465 c-12 -26 -19 -49 -16 -52 3 -3 15 16 26 42 27 62 18 71
-10 10z"/>
<path d="M7171 12359 c-37 -8 -93 -45 -110 -72 -18 -28 -6 -32 21 -7 43 40 94
60 155 59 57 0 125 -10 171 -24 35 -11 26 11 -10 25 -18 7 -42 16 -53 21 -21
10 -122 8 -174 -2z"/>
<path d="M2745 12310 c-8 -14 41 -43 78 -45 18 -1 46 -6 62 -12 17 -5 41 -7
55 -3 l25 6 -25 16 c-14 9 -60 23 -104 32 -92 19 -83 18 -91 6z"/>
<path d="M7500 12311 c0 -18 15 -19 40 -5 l25 13 -32 1 c-18 0 -33 -4 -33 -9z"/>
<path d="M3043 12267 c4 -22 107 -77 107 -57 0 17 -32 40 -56 40 -14 0 -23 4
-20 9 3 5 -3 11 -14 14 -11 3 -18 0 -17 -6z"/>
<path d="M2928 12209 c-19 -10 -14 -39 7 -39 12 0 45 31 45 43 0 10 -33 8 -52
-4z"/>
<path d="M3192 12198 c-12 -12 -17 -38 -6 -38 10 0 34 28 34 39 0 14 -13 14
-28 -1z"/>
<path d="M7097 12185 c-16 -14 -33 -22 -38 -19 -7 4 -9 -5 -7 -22 4 -33 28
-46 28 -15 0 12 6 24 14 27 17 6 51 54 39 54 -5 0 -21 -12 -36 -25z"/>
<path d="M11358 12181 c-53 -18 -73 -34 -64 -50 17 -28 126 11 126 44 0 21
-11 22 -62 6z"/>
<path d="M3000 12145 c0 -8 9 -20 20 -27 11 -7 20 -23 20 -35 0 -17 6 -23 21
-23 16 0 19 3 12 13 -6 6 -13 29 -17 50 -6 31 -11 37 -31 37 -16 0 -25 -6 -25
-15z"/>
<path d="M3130 12110 c0 -11 40 -34 47 -26 3 3 3 12 0 21 -7 16 -47 21 -47 5z"/>
<path d="M2931 12093 c1 -14 100 -84 137 -98 20 -7 51 -20 67 -28 40 -20 105
-31 105 -18 0 13 -14 21 -48 27 -15 3 -34 12 -42 19 -9 8 -25 12 -38 8 -19 -4
-22 -1 -22 22 0 24 -1 25 -16 11 -17 -18 -34 -21 -34 -7 0 5 -11 12 -24 15
-13 3 -31 17 -40 31 -15 23 -47 35 -45 18z"/>
<path d="M6954 12067 c-29 -35 -44 -65 -43 -84 0 -13 3 -11 10 7 6 13 21 39
36 58 29 38 27 54 -3 19z"/>
<path d="M11457 12083 c-3 -5 -7 -30 -11 -58 -4 -27 -11 -72 -17 -98 -9 -36
-8 -55 1 -78 16 -37 11 -42 -27 -27 -23 9 -41 8 -77 -2 l-46 -13 0 -106 c0
-72 3 -101 10 -91 5 8 10 23 10 33 0 20 7 21 40 2 14 -8 39 -14 57 -15 39 0
53 21 57 85 1 24 5 48 9 52 4 4 43 -29 87 -72 80 -79 80 -79 96 -57 8 12 19
20 24 17 11 -7 60 -113 66 -144 3 -13 14 -41 25 -63 29 -56 23 -83 -18 -83
-18 0 -33 -2 -33 -5 0 -7 134 -69 139 -64 2 2 -1 9 -6 16 -14 18 -108 243
-128 304 -16 53 -153 329 -208 422 -30 50 -41 60 -50 45z m23 -183 c0 -24 -6
-25 -26 -6 -19 20 -18 26 6 26 13 0 20 -7 20 -20z"/>
<path d="M6952 11923 c-16 -11 -25 -13 -35 -4 -19 15 -28 3 -14 -20 15 -25 26
-24 60 6 41 36 34 49 -11 18z"/>
<path d="M6861 11742 c-10 -50 -6 -92 10 -92 5 0 9 24 9 54 0 30 3 61 6 70 3
9 2 16 -4 16 -6 0 -15 -22 -21 -48z"/>
<path d="M8650 11662 c0 -12 24 -22 50 -22 24 0 34 15 12 17 -9 1 -27 4 -39 8
-14 4 -23 3 -23 -3z"/>
<path d="M8752 11658 c2 -8 27 -15 73 -20 39 -4 93 -12 120 -17 28 -6 73 -13
100 -16 47 -5 46 -4 -20 14 -66 18 -128 28 -216 35 -20 2 -41 6 -48 10 -7 5
-10 2 -9 -6z"/>
<path d="M6880 11584 c0 -59 87 -177 158 -213 35 -18 26 -4 -38 63 -33 35 -71
87 -85 119 -15 31 -28 57 -31 57 -2 0 -4 -11 -4 -26z"/>
<path d="M11390 11430 c24 -20 50 -27 50 -12 0 10 -44 32 -62 32 -6 0 -1 -9
12 -20z"/>
<path d="M9615 11414 c23 -18 171 -94 182 -94 18 1 -47 42 -115 75 -80 38 -98
43 -67 19z"/>
<path d="M11465 11397 c30 -17 105 -36 145 -36 l35 1 -30 13 c-16 8 -47 14
-67 15 -20 0 -40 5 -43 10 -3 6 -18 10 -33 10 -25 -1 -26 -1 -7 -13z"/>
<path d="M10743 11320 c-23 -28 -30 -50 -15 -50 11 0 53 68 44 73 -4 3 -17 -8
-29 -23z"/>
<path d="M11967 11202 c17 -15 61 -49 98 -77 96 -73 171 -154 184 -201 14 -49
14 -137 1 -234 -21 -156 -26 -220 -17 -211 14 14 45 185 53 292 9 126 -4 180
-58 242 -62 73 -251 218 -282 217 -6 0 3 -13 21 -28z"/>
<path d="M10683 11114 c-3 -8 -1 -25 4 -37 9 -20 11 -19 15 16 4 37 -7 51 -19
21z"/>
<path d="M10166 11102 c-5 -9 52 -47 60 -39 3 3 -8 14 -25 26 -16 12 -32 18
-35 13z"/>
<path d="M9661 11038 c-32 -52 -332 -331 -387 -361 -11 -6 -25 -18 -31 -28
-14 -18 -152 -88 -223 -112 -92 -31 -164 -38 -255 -27 -48 6 -95 8 -106 5 -11
-4 -19 -2 -19 4 0 6 -9 11 -21 11 -30 0 -14 -17 24 -25 17 -4 37 -11 43 -16 6
-5 67 -12 135 -15 110 -6 133 -4 199 16 41 12 94 30 117 41 24 10 46 19 50 19
4 0 28 18 54 40 39 33 56 40 91 41 24 0 51 4 61 8 17 6 17 8 3 20 -9 7 -27 11
-41 9 -34 -7 -31 5 8 35 60 47 347 338 347 352 0 26 -28 16 -49 -17z"/>
<path d="M10310 10990 c0 -5 19 -22 43 -36 44 -28 78 -56 164 -133 l52 -48 -3
-58 c-2 -52 -6 -61 -37 -86 -54 -45 -95 -52 -314 -52 -149 0 -240 5 -358 21
-171 24 -257 28 -257 12 0 -11 13 -14 135 -34 221 -36 552 -49 678 -26 101 19
226 107 246 174 16 54 21 97 11 91 -6 -3 -10 -19 -10 -35 0 -42 -18 -34 -128
56 -115 94 -207 164 -216 164 -3 0 -6 -4 -6 -10z"/>
<path d="M10687 10910 c-4 -14 -6 -38 -6 -55 l1 -30 9 34 c6 18 9 43 7 55 -3
20 -4 19 -11 -4z"/>
<path d="M6060 10914 c-14 -2 -50 -9 -80 -16 l-55 -11 35 -8 c42 -10 168 0
177 14 3 5 -1 13 -8 18 -14 9 -24 9 -69 3z"/>
<path d="M7910 10866 c0 -8 21 -27 48 -44 75 -47 423 -232 438 -232 13 0 1 18
-18 28 -13 6 -45 25 -73 41 -27 17 -59 35 -70 40 -48 21 -192 93 -210 104 -11
7 -37 27 -59 45 -43 35 -56 39 -56 18z"/>
<path d="M7530 10830 c0 -5 25 -10 56 -10 34 0 53 4 49 10 -3 6 -28 10 -56 10
-27 0 -49 -4 -49 -10z"/>
<path d="M8410 10591 c0 -9 121 -61 142 -61 23 0 -6 18 -71 44 -73 30 -71 29
-71 17z"/>
<path d="M12199 10345 c-2 -59 3 -97 21 -162 11 -36 17 -69 15 -74 -3 -4 -22
-3 -43 3 -93 26 -556 -12 -877 -72 -27 -5 -71 -12 -97 -14 -119 -13 -438 -101
-658 -181 -326 -119 -445 -161 -655 -230 -282 -94 -426 -144 -445 -154 -9 -5
-31 -12 -50 -16 -19 -4 -39 -11 -45 -15 -5 -5 -30 -13 -55 -20 -25 -7 -69 -23
-98 -36 -29 -13 -57 -24 -61 -24 -5 0 -75 -31 -155 -70 -81 -38 -148 -70 -151
-70 -2 0 -64 -29 -137 -63 -153 -73 -452 -207 -463 -207 -4 0 -21 -6 -38 -14
-187 -81 -232 -97 -252 -86 -23 12 -37 42 -54 112 -15 64 -14 95 4 102 23 9
18 28 -5 21 -18 -6 -21 -2 -19 27 1 41 -10 213 -17 253 -3 17 -9 54 -14 83 -5
28 -27 91 -48 140 -22 48 -54 127 -72 176 -28 78 -31 96 -27 160 3 39 9 84 13
101 7 28 6 29 -10 13 -10 -11 -21 -48 -28 -97 -15 -99 -8 -126 73 -329 42
-105 59 -159 59 -192 0 -26 4 -71 10 -101 5 -30 11 -76 14 -104 23 -217 38
-299 67 -361 25 -57 22 -77 -30 -205 -53 -132 -78 -204 -91 -274 -14 -75 -31
-126 -48 -143 -16 -18 -6 -33 16 -25 12 5 10 -3 -10 -29 -34 -44 -34 -48 -6
-101 42 -82 48 -95 48 -111 0 -26 -84 -109 -132 -133 -54 -26 -98 -37 -98 -23
0 5 16 45 36 87 20 43 40 91 45 108 9 29 9 29 -11 10 -26 -27 -150 -267 -150
-292 0 -21 -62 -123 -115 -188 -18 -22 -48 -71 -67 -110 -61 -127 -78 -188
-88 -312 -12 -143 -24 -200 -60 -278 -83 -179 -145 -354 -165 -465 -7 -41 -12
-77 -10 -78 2 -2 20 50 39 115 45 146 102 294 171 438 47 98 53 118 54 180 4
208 67 393 181 535 29 36 63 81 75 101 34 53 53 69 83 69 33 0 259 -72 377
-120 11 -5 59 -24 106 -44 47 -20 90 -36 95 -36 4 0 62 -20 128 -45 67 -24
166 -61 221 -81 109 -39 378 -172 473 -234 39 -25 62 -48 66 -64 7 -27 33 -35
52 -16 6 6 36 -3 84 -25 41 -19 81 -35 88 -35 27 0 10 -29 -24 -40 -19 -7 -92
-50 -162 -97 -70 -47 -165 -109 -212 -137 -134 -81 -238 -172 -254 -223 -11
-35 20 -29 39 7 21 41 185 175 260 212 33 17 105 61 160 98 150 101 129 97
231 40 126 -71 232 -110 296 -110 65 0 109 20 227 100 l91 61 65 -58 c46 -40
77 -79 103 -127 48 -91 100 -146 137 -146 28 0 105 -45 105 -61 0 -4 22 -22
50 -40 27 -18 53 -42 56 -53 23 -73 189 -267 247 -289 29 -11 33 -1 4 15 -21
11 -70 63 -128 135 -9 11 -49 69 -89 129 -40 60 -86 123 -102 140 -33 35 -31
38 26 48 39 7 145 43 351 116 111 40 465 239 545 307 14 12 54 44 89 72 35 28
102 87 148 131 47 44 89 80 94 80 5 0 9 -11 9 -25 0 -57 41 -99 55 -55 4 11
10 18 14 16 4 -3 66 -14 137 -25 71 -11 145 -25 164 -31 19 -5 48 -10 65 -10
l30 1 -26 14 c-30 16 -270 80 -341 90 -100 15 -90 55 47 195 126 127 227 252
245 301 13 35 11 40 -27 110 -56 105 -82 145 -152 231 -58 73 -71 103 -53 124
15 16 100 237 107 276 4 20 27 72 52 115 144 251 232 503 278 797 19 120 19
440 0 534 -11 55 -11 62 3 62 8 0 13 -3 9 -6 -9 -9 19 -34 37 -34 22 0 12 105
-21 240 -28 112 -42 143 -44 95z m-912 -380 c-3 -47 -27 -47 -27 0 0 24 5 35
15 35 11 0 14 -9 12 -35z m-47 -283 c0 -25 -7 -46 -20 -60 -21 -22 -36 -30
-26 -13 4 5 0 12 -6 15 -10 5 -10 7 -1 12 7 3 9 12 6 20 -4 10 0 12 12 8 11
-5 16 -2 15 7 -4 28 0 49 10 49 6 0 10 -17 10 -38z m-187 -569 c-24 -34 -29
-43 -41 -73 -10 -22 -11 -20 -11 22 -1 25 -4 55 -7 65 -3 10 1 8 9 -6 l15 -24
12 24 c7 13 18 27 24 31 19 13 19 -12 -1 -39z m-82 -94 c19 -19 19 -22 4 -45
-8 -13 -20 -24 -25 -24 -6 0 -10 -7 -10 -15 0 -8 -14 -18 -32 -23 -30 -7 -52
-32 -29 -32 6 0 11 5 11 10 0 6 7 10 15 10 14 0 14 -3 0 -24 -10 -15 -22 -22
-34 -19 -10 3 -22 0 -25 -6 -4 -6 -14 -11 -23 -11 -13 0 -12 5 7 25 23 25 41
53 59 92 11 24 31 39 31 24 0 -6 5 -11 11 -11 7 0 9 12 5 35 -8 40 4 45 35 14z
m-102 -196 c-8 -9 -40 -44 -71 -76 -32 -33 -58 -63 -58 -68 0 -11 -23 -7 -32
6 -14 18 -8 26 13 20 18 -6 20 -4 14 17 -5 17 -4 19 4 8 9 -13 12 -12 25 5 9
11 16 23 16 27 0 4 9 9 19 13 10 3 22 16 25 30 4 14 15 25 29 28 12 2 24 5 26
6 2 0 -3 -7 -10 -16z m-225 -198 c-4 -8 -2 -15 4 -15 20 0 -1 -38 -46 -84 -26
-26 -86 -75 -134 -109 -48 -34 -117 -84 -153 -110 -37 -27 -69 -46 -73 -42 -4
4 -1 10 6 12 7 3 25 16 40 28 21 18 24 26 15 36 -9 9 -17 8 -37 -5 -28 -18
-61 -22 -51 -6 3 6 15 10 26 10 10 0 19 4 19 8 0 11 87 67 118 76 12 4 22 12
22 17 0 6 5 7 11 3 8 -4 7 -9 -2 -15 -11 -6 -11 -11 -1 -21 8 -8 12 -8 12 -1
0 6 9 13 21 16 12 3 18 10 15 15 -3 6 5 13 18 16 13 3 37 19 53 36 15 16 34
30 40 30 7 0 13 5 13 10 0 6 7 10 15 10 8 0 15 5 15 11 0 5 -4 8 -9 4 -10 -6
15 51 32 73 13 16 18 15 11 -3z m-2691 -24 c23 -38 22 -68 -3 -83 -11 -7 -20
-16 -20 -21 0 -4 -16 -21 -35 -38 -19 -17 -35 -38 -35 -47 0 -13 2 -13 18 1
33 30 114 58 161 55 24 -2 46 -8 48 -14 2 -6 -29 -31 -69 -55 -40 -24 -88 -54
-107 -66 -19 -13 -44 -23 -57 -23 -23 0 -24 4 -24 60 0 59 4 72 45 165 13 28
26 60 30 73 9 30 27 28 48 -7z"/>
<path d="M10352 8402 c-12 -2 -27 -12 -32 -23 -9 -16 -7 -19 12 -19 29 1 65
27 52 38 -5 4 -19 6 -32 4z"/>
<path d="M3247 9478 c-4 -18 -9 -44 -13 -58 -5 -19 -4 -22 5 -14 16 15 32 87
22 97 -5 5 -11 -7 -14 -25z"/>
<path d="M11520 7181 c-14 -34 -11 -62 8 -69 8 -2 12 11 12 47 0 28 -2 51 -4
51 -2 0 -9 -13 -16 -29z"/>
<path d="M12205 7156 c11 -7 41 -24 68 -36 26 -12 47 -26 47 -31 0 -5 6 -9 13
-9 14 0 201 -182 199 -193 0 -3 12 -20 27 -36 39 -41 61 -92 61 -138 0 -76 39
-78 47 -2 4 41 0 50 -63 137 -70 97 -180 204 -249 241 -22 12 -60 35 -85 51
-47 30 -106 45 -65 16z"/>
<path d="M14073 7105 c10 -16 23 -57 31 -90 10 -46 14 -55 20 -39 8 26 -27
126 -51 146 -15 12 -15 10 0 -17z"/>
<path d="M12981 6850 c-13 -6 -22 -13 -19 -15 3 -3 62 -7 132 -10 163 -5 287
-23 304 -43 6 -9 12 -26 12 -38 0 -18 -7 -22 -47 -27 -50 -5 -255 14 -286 28
-10 4 -23 2 -32 -5 -12 -10 -113 -32 -216 -47 -40 -5 -79 10 -79 31 0 14 41
56 56 56 5 0 23 11 39 25 l30 24 -25 0 c-29 1 -106 -33 -132 -56 -10 -9 -18
-24 -18 -34 0 -18 10 -28 106 -116 31 -29 50 -59 75 -123 30 -78 33 -94 34
-195 0 -94 -4 -119 -24 -170 -27 -67 -81 -148 -143 -216 -16 -16 -28 -34 -28
-39 0 -6 -6 -10 -12 -10 -21 0 -154 -57 -231 -99 -52 -28 -80 -38 -99 -34 -44
8 -52 26 -29 64 18 33 36 89 27 89 -2 0 -18 -24 -35 -54 -16 -30 -34 -57 -40
-60 -5 -3 -51 3 -102 13 -86 17 -179 33 -374 63 -170 26 -343 70 -431 108 -59
27 -118 36 -112 19 5 -14 139 -63 275 -100 100 -27 254 -57 363 -70 46 -5 98
-16 114 -24 16 -8 44 -15 61 -15 18 0 68 -9 111 -20 44 -11 105 -23 137 -26
31 -4 57 -10 57 -14 0 -3 -16 -24 -35 -46 -20 -21 -38 -49 -41 -61 -9 -33 25
-84 78 -118 26 -16 47 -35 47 -42 1 -7 -17 -40 -39 -74 -40 -63 -47 -79 -31
-79 15 0 61 49 61 65 0 8 7 15 17 15 9 0 14 3 10 6 -3 4 6 23 21 43 14 20 27
38 29 40 1 2 10 1 19 -3 13 -5 14 -9 4 -21 -14 -17 -5 -85 10 -85 6 0 10 18
10 40 0 29 4 40 15 40 8 0 23 4 33 9 70 36 101 39 110 14 4 -14 -1 -16 -63
-33 -56 -14 -71 -25 -58 -42 6 -7 14 -29 18 -48 9 -41 37 -99 76 -156 26 -38
31 -41 73 -39 47 1 51 -2 40 -29 -4 -11 -14 -13 -35 -9 -40 8 -36 -5 18 -57
68 -65 83 -95 83 -163 0 -137 36 -262 94 -327 12 -14 35 -42 50 -64 16 -21 44
-44 62 -52 30 -12 38 -12 67 1 17 8 43 24 58 35 l25 21 48 -21 c26 -11 56 -20
67 -20 26 0 61 34 93 90 112 193 167 373 136 445 -8 19 -9 19 -9 -3 -2 -44
-48 -193 -88 -287 -34 -77 -123 -205 -144 -205 -22 0 -99 39 -99 50 0 5 8 24
18 42 51 92 92 238 112 393 6 50 15 115 20 145 16 99 20 155 21 295 0 77 4
144 8 150 5 5 6 36 4 67 l-5 58 -52 25 c-57 28 -125 68 -143 84 -6 6 -23 13
-37 17 -14 3 -26 12 -26 18 0 21 74 84 108 91 28 6 32 4 32 -13 0 -18 103
-121 121 -122 13 0 29 89 49 266 11 98 24 202 30 229 6 28 13 129 16 225 6
163 5 179 -15 230 -31 80 -30 80 44 80 l64 0 27 -46 c45 -76 56 -122 66 -284
10 -156 6 -229 -33 -530 -28 -210 -39 -334 -38 -425 0 -135 14 -96 29 81 6 77
17 175 25 219 8 44 26 179 41 300 21 179 24 244 19 350 -7 160 -22 252 -44
274 -9 9 -27 31 -40 49 l-23 33 -112 -6 c-153 -9 -145 -9 -203 3 -75 16 -303
24 -332 12z m198 -1132 c73 -35 132 -73 174 -113 22 -21 27 -34 27 -75 0 -54
-4 -59 -29 -35 -9 9 -61 46 -116 84 -153 106 -156 110 -139 155 8 21 7 21 83
-16z m-381 -498 c11 -18 10 -20 -12 -20 -14 0 -28 5 -31 10 -3 6 -15 10 -26
10 -10 0 -19 5 -19 10 0 6 17 10 38 10 26 0 41 -6 50 -20z"/>
<path d="M8595 6461 c-8 -26 -11 -46 -19 -111 -9 -73 -45 -257 -58 -298 -5
-18 -8 -36 -5 -38 12 -13 47 43 53 85 3 25 10 64 16 86 15 58 38 214 38 258 0
39 -15 50 -25 18z"/>
<path d="M10720 6141 c0 -29 111 -81 247 -115 110 -28 194 -36 200 -21 3 11
-30 20 -172 50 -38 8 -96 26 -127 40 -71 32 -148 55 -148 46z"/>
<path d="M8361 5786 c-56 -60 -64 -75 -26 -50 21 14 91 104 81 104 -2 0 -26
-24 -55 -54z"/>
<path d="M14160 5739 c0 -44 5 -71 16 -85 14 -18 15 -13 10 55 -7 97 -26 119
-26 30z"/>
<path d="M7928 5469 c-40 -21 -51 -52 -21 -63 18 -7 73 38 73 60 0 22 -14 23
-52 3z"/>
<path d="M12481 5357 c-1 -50 -41 -185 -67 -224 -12 -20 -12 -22 1 -17 27 11
85 148 84 201 -1 68 -17 104 -18 40z"/>
<path d="M12545 5311 c-12 -56 7 -113 40 -117 6 0 16 -2 23 -2 6 -1 12 -9 12
-19 0 -9 3 -14 6 -10 8 7 -15 77 -25 77 -5 0 -6 10 -4 23 4 24 -16 68 -34 74
-6 2 -14 -9 -18 -26z m35 -40 c0 -17 -4 -33 -10 -36 -6 -4 -10 8 -10 29 0 20
5 36 10 36 6 0 10 -13 10 -29z"/>
<path d="M13594 5206 c-13 -14 -24 -196 -12 -196 6 0 10 24 24 153 7 60 6 64
-12 43z"/>
<path d="M12311 5187 c-11 -14 -11 -21 3 -42 15 -23 55 -48 64 -40 2 2 -8 15
-22 30 -14 15 -26 36 -28 47 -3 20 -4 20 -17 5z"/>
<path d="M5596 4919 c2 -4 -14 -9 -36 -13 -47 -7 -54 -26 -10 -26 17 0 30 5
30 10 0 6 3 9 8 9 21 -4 42 2 38 10 -4 5 0 11 6 14 7 2 1 4 -14 3 -14 0 -24
-4 -22 -7z"/>
<path d="M2735 2948 c-11 -7 -29 -14 -40 -15 -11 -1 -74 -9 -140 -17 -66 -9
-158 -21 -205 -27 -47 -6 -96 -13 -110 -15 -14 -2 -74 -8 -135 -15 -60 -6
-113 -13 -116 -14 -3 -2 -32 -7 -65 -10 -208 -20 -566 -85 -579 -105 -2 -3 0
-12 5 -19 6 -11 22 -10 86 7 44 12 113 26 154 32 41 7 98 18 126 26 28 8 89
18 135 23 46 4 140 16 209 25 204 28 655 80 798 91 45 4 84 11 87 15 2 4 -30
10 -73 13 -42 3 -86 8 -97 11 -11 3 -29 0 -40 -6z"/>
<path d="M1360 2673 c1 -28 47 -45 118 -45 21 0 42 -4 48 -9 17 -14 254 -24
254 -11 0 13 -21 17 -170 36 -63 9 -131 20 -150 26 -41 12 -100 13 -100 3z"/>
<path d="M16441 2532 c-16 -12 52 -19 249 -28 81 -4 121 -2 115 4 -18 18 -342
38 -364 24z"/>
<path d="M3560 2487 c12 -13 55 -18 205 -26 281 -16 587 -30 785 -36 96 -3
236 -10 310 -15 74 -6 257 -14 405 -20 149 -6 360 -15 470 -20 567 -28 748
-36 1395 -60 151 -6 361 -15 465 -20 105 -5 312 -14 460 -20 149 -6 344 -15
435 -20 91 -5 262 -14 380 -20 118 -6 346 -17 505 -25 160 -9 418 -22 575 -30
482 -25 586 -31 998 -55 92 -5 293 -16 447 -25 154 -8 350 -19 435 -25 85 -5
238 -14 340 -20 102 -6 300 -17 440 -25 140 -8 325 -17 410 -20 85 -3 166 -8
180 -11 14 -3 95 -10 180 -15 85 -4 218 -13 295 -19 77 -6 174 -13 215 -15 41
-2 113 -9 160 -14 47 -6 157 -15 245 -21 88 -6 209 -16 268 -22 60 -6 146 -8
191 -5 56 4 87 2 95 -6 8 -8 11 -7 11 5 0 17 -44 21 -310 33 -63 3 -146 10
-185 15 -38 5 -113 12 -165 15 -52 3 -162 12 -245 20 -82 8 -208 16 -280 17
-71 1 -132 5 -135 9 -3 4 -52 8 -110 9 -58 1 -118 6 -135 10 -16 5 -91 11
-165 15 -74 3 -196 9 -270 14 -74 5 -218 14 -320 20 -265 15 -500 29 -690 41
-91 6 -241 15 -335 20 -93 5 -210 11 -260 14 -49 3 -178 10 -285 16 -107 6
-256 15 -330 20 -74 6 -243 14 -375 20 -132 6 -269 13 -305 16 -36 3 -153 9
-260 14 -107 5 -292 14 -410 20 -273 14 -575 28 -855 40 -121 6 -305 15 -410
20 -104 5 -305 14 -445 20 -140 6 -358 14 -485 19 -284 12 -644 28 -909 41
-111 6 -313 15 -451 20 -289 11 -374 15 -735 36 -251 14 -407 21 -945 44 -126
5 -293 13 -370 16 -127 6 -139 5 -125 -9z"/>
<path d="M16480 2450 c0 -6 37 -10 90 -10 53 0 90 4 90 10 0 6 -37 10 -90 10
-53 0 -90 -4 -90 -10z"/>
<path d="M17229 2430 c-11 -7 -10 -10 4 -16 9 -3 14 -10 11 -15 -3 -5 6 -9 20
-9 29 0 41 14 23 27 -21 17 -43 21 -58 13z"/>
<path d="M16800 2170 c0 -5 -9 -10 -21 -10 -22 0 -85 -19 -194 -57 -38 -13
-92 -31 -120 -40 -70 -21 -155 -62 -155 -75 0 -6 8 -8 18 -5 50 16 229 80 317
113 55 20 121 44 148 53 49 16 62 31 27 31 -11 0 -20 -4 -20 -10z"/>
<path d="M15047 2029 c7 -7 43 -15 80 -17 115 -8 447 -20 463 -16 8 1 24 3 34
3 13 1 16 4 10 10 -5 5 -97 12 -204 15 -107 3 -240 8 -295 12 -81 5 -98 4 -88
-7z"/>
<path d="M15630 1885 c-154 -11 -221 -25 -187 -38 9 -3 139 -2 289 2 224 7
280 11 306 25 18 9 32 19 32 21 0 9 -281 2 -440 -10z"/>
</g>
</svg>
